<?xml version="1.0" encoding="utf-8"?>
<!-- Generator: Adobe Illustrator 18.0.0, SVG Export Plug-In . SVG Version: 6.00 Build 0)  -->
<!DOCTYPE svg PUBLIC "-//W3C//DTD SVG 1.1//EN" "http://www.w3.org/Graphics/SVG/1.1/DTD/svg11.dtd">
<svg version="1.1" id="Layer_1"
	xmlns="http://www.w3.org/2000/svg"
	xmlns:xlink="http://www.w3.org/1999/xlink" x="0px" y="0px" viewBox="0 0 80 80" enable-background="new 0 0 80 80" xml:space="preserve">
	<path fill-rule="evenodd" clip-rule="evenodd" fill="#6189D0" d="M14.676,5.072L65.662,5.01c9.1-0.011,9.519,0.352,9.53,9.451
	l0.062,50.818c0.011,9.1-0.407,9.744-9.507,9.755l-50.987,0.062c-9.1,0.011-9.52-0.632-9.531-9.732L5.168,14.546
	C5.157,5.446,5.576,5.083,14.676,5.072z"/>
	<path fill="#FFFFFF" d="M54.293,54.235c-3.447,0.004-5.405,0.17-6.031,0.17c-0.627,0.001-1.254-0.651-1.255-1.262
	c-0.003-2.372-0.076-7.847-0.083-13.306c-0.007-5.531,0.053-11.044,0.051-13.292c-0.001-0.652,0.625-1.306,1.252-1.306
	c1.429-0.002,3.714,0.24,5.953,0.237c7.52-0.009,7.194-10.365-0.326-10.356c-2.818,0.026-8.44,0.686-13.629,0.687
	c-5.514,0.001-11.521-0.656-13.63-0.654c-7.52,0.009-7.821,10.366-0.301,10.357c2.829-0.003,4.471-0.25,6.031-0.252
	c0.548-0.001,1.176,0.651,1.177,1.303c0.001,0.543-0.093,6.867-0.086,13.211c0.008,6.511,0.118,13.043,0.118,13.374
	c0.001,0.652-0.625,1.306-1.252,1.306c-1.211,0.001-4.067-0.24-5.901-0.238c-7.572,0.009-7.246,10.365,0.274,10.356
	c1.272-0.002,7.701-0.58,13.707-0.587c5.823-0.007,12.164,0.556,13.552,0.554C61.322,64.529,61.735,54.226,54.293,54.235z"/>
</svg>
